#!OML:ASF F:\VICON\USERDATA\INSTALL\rory3\rory3.ASF
:FULLY-SPECIFIED
:DEGREES
4422
root 12.3953 17.8237 -9.41766 -1433.81 56.1462 370.816
lowerback 11.9398 2.68332 -3.68152
upperback 1.04374 3.03756 -1.21221
thorax -5.72154 1.58183 0.288979
lowerneck -12.2872 -10.2121 -13.2112
upperneck 27.6916 -14.0322 9.92249
head 12.9902 -6.34937 3.8351
rclavicle 4.50496e-014 1.27222e-014
rhumerus -29.2359 -1.4918 -87.9134
rradius 29.414
rwrist 7.5247
rhand -15.1422 7.95113
rfingers 7.12502
rthumb 11.0276 -21.7392
lclavicle 4.50496e-014 1.27222e-014
lhumerus -38.738 4.20612 77.6543
lradius 28.842
lwrist -6.5113
lhand -17.1679 27.3894
lfingers 7.12502
lthumb 9.07337 57.1743
rfemur -11.8711 -0.350611 15.9237
rtibia 57.7751
rfoot -9.61434 12.5026
rtoes -6.49404
lfemur -7.01849 -5.69988 -21.1629
ltibia 13.7184
lfoot -4.07163 -22.6805
ltoes -3.66747
4423
root 12.4489 17.8376 -9.40539 -1433.89 55.3594 370.728
lowerback 11.8824 2.61398 -3.81535
upperback 1.04285 2.93213 -1.17154
thorax -5.69567 1.53319 0.427189
lowerneck -12.1885 -10.1722 -13.2583
upperneck 27.6539 -13.9404 9.80729
head 12.9342 -6.33435 3.81757
rclavicle 3.64521e-014 -1.63003e-014
rhumerus -29.4625 -1.43607 -87.6378
rradius 29.7966
rwrist 7.19912
rhand -14.8796 8.38405
rfingers 7.12502
rthumb 11.2809 -21.2926
lclavicle 3.64521e-014 -1.63003e-014
lhumerus -38.4399 4.60233 77.5062
lradius 28.537
lwrist -7.0047
lhand -17.1897 27.4562
lfingers 7.12502
lthumb 9.05231 57.242
rfemur -12.6229 -1.24984 15.7316
rtibia 58.4611
rfoot -10.5465 10.0213
rtoes -7.28385
lfemur -6.53599 -5.22404 -21.2797
ltibia 13.3371
lfoot -4.03314 -22.3939
ltoes -2.80272
4424
root 12.5023 17.8534 -9.38884 -1433.98 54.4794 370.551
lowerback 11.7204 2.58116 -4.02234
upperback 1.0021 2.87219 -1.07471
thorax -5.66146 1.50916 0.660677
lowerneck -11.8633 -10.0984 -13.5113
upperneck 27.5081 -13.8472 9.95906
head 12.8291 -6.31764 3.9457
rclavicle -3.81915e-014 1.11319e-014
rhumerus -29.7052 -1.33389 -87.2993
rradius 30.1547
rwrist 6.91604
rhand -14.8522 8.39616
rfingers 7.12502
rthumb 11.3073 -21.279
lclavicle -3.81915e-014 1.11319e-014
lhumerus -37.92 5.17763 77.3794
lradius 27.9889
lwrist -7.70018
lhand -17.248 27.6972
lfingers 7.12502
lthumb 8.99601 57.4854
rfemur -13.4122 -1.96841 15.6531
rtibia 58.9851
rfoot -11.2285 7.76427
rtoes -6.69602
lfemur -6.14333 -4.71964 -21.3265
ltibia 13.0765
lfoot -4.12543 -22.0348
ltoes -1.86044
4425
root 12.5589 17.8677 -9.38047 -1434.26 53.5255 370.212
lowerback 11.6681 2.55543 -3.95686
upperback 0.979636 2.84977 -1.02966
thorax -5.65413 1.49668 0.676772
lowerneck -11.69 -10.0555 -13.505
upperneck 27.4096 -13.8019 9.95258
head 12.7446 -6.30779 3.95569
rclavicle -1.06896e-013 3.18055e-015
rhumerus -29.9621 -1.07896 -87.1215
rradius 30.5643
rwrist 6.85641
rhand -15.1775 8.16969
rfingers 7.12502
rthumb 10.9936 -21.5224
lclavicle -1.06896e-013 3.18055e-015
lhumerus -37.5486 5.23524 77.245
lradius 27.7623
lwrist -7.87256
lhand -17.0466 27.8971
lfingers 7.12502
lthumb 9.19036 57.6768
rfemur -14.197 -2.59503 15.6254
rtibia 59.3887
rfoot -11.5822 5.94544
rtoes -5.60734
lfemur -5.72719 -4.40364 -21.3232
ltibia 12.8514
lfoot -4.37956 -21.3664
ltoes -1.86894
4426
root 12.6146 17.878 -9.37811 -1434.53 52.6056 369.889
lowerback 11.7002 2.54249 -3.73809
upperback 1.00325 2.85821 -1.05692
thorax -5.63523 1.49469 0.52382
lowerneck -11.851 -10.0995 -13.126
upperneck 27.4042 -13.8614 9.67293
head 12.7251 -6.32503 3.76753
rclavicle -5.37216e-014 -5.96354e-015
rhumerus -30.1861 -1.10165 -86.9846
rradius 31.0139
rwrist 6.59648
rhand -15.5895 8.62379
rfingers 7.12502
rthumb 10.5962 -21.0891
lclavicle -5.37216e-014 -5.96354e-015
lhumerus -37.3866 4.50598 77.3439
lradius 28.0108
lwrist -6.88615
lhand -16.5644 27.7142
lfingers 7.12502
lthumb 9.65564 57.4729
rfemur -14.9067 -3.28867 15.5604
rtibia 59.6963
rfoot -11.9432 4.28083
rtoes -4.89718
lfemur -5.37295 -4.17174 -21.3606
ltibia 12.7324
lfoot -4.62509 -20.6201
ltoes -1.83003
4427
root 12.6696 17.8863 -9.37672 -1434.65 51.6666 369.742
lowerback 11.7601 2.55996 -3.64293
upperback 1.01159 2.88913 -1.08501
thorax -5.65481 1.5072 0.433551
lowerneck -12.0416 -10.1658 -12.8472
upperneck 27.3986 -13.9474 9.45836
head 12.73 -6.35572 3.61482
rclavicle -1.19768e-014 2.0276e-014
rhumerus -30.4183 -1.13922 -86.7861
rradius 31.4836
rwrist 6.22227
rhand -15.9347 9.17111
rfingers 7.12502
rthumb 10.2631 -20.5585
lclavicle -1.19768e-014 2.0276e-014
lhumerus -37.2428 3.51778 77.8199
lradius 28.4408
lwrist -4.87124
lhand -16.9785 28.4396
lfingers 7.12502
lthumb 9.25608 58.2165
rfemur -15.5991 -4.04 15.3757
rtibia 59.9014
rfoot -12.459 2.95196
rtoes -3.78982
lfemur -5.06174 -3.88144 -21.5246
ltibia 12.6603
lfoot -4.94714 -19.8978
ltoes -2.15765
4428
root 12.7239 17.8921 -9.36614 -1434.66 50.6527 369.725
lowerback 11.7261 2.55971 -3.76548
upperback 1.0754 2.87662 -1.08106
thorax -5.57426 1.50267 0.511821
lowerneck -12.3123 -10.1664 -12.7613
upperneck 27.4117 -13.9238 9.37199
head 12.7724 -6.34028 3.55945
rclavicle -5.85918e-014 2.54444e-014
rhumerus -30.4907 -0.973335 -86.5906
rradius 31.9112
rwrist 5.95805
rhand -15.9007 9.17574
rfingers 7.12502
rthumb 10.2959 -20.5522
lclavicle -5.85918e-014 2.54444e-014
lhumerus -36.9887 2.96533 78.2093
lradius 28.9335
lwrist -3.15595
lhand -18.9214 32.1793
lfingers 7.12502
lthumb 7.381 62.0306
rfemur -16.3395 -4.69143 15.1585
rtibia 59.9425
rfoot -12.8694 1.77252
rtoes 3.55599
lfemur -4.75465 -3.68401 -21.7684
ltibia 12.6332
lfoot -5.42961 -18.967
ltoes -3.53621
4429
root 12.7694 17.8982 -9.3357 -1434.68 49.5413 369.755
lowerback 11.6361 2.62689 -4.15857
upperback 1.14647 2.92285 -1.06507
thorax -5.47167 1.53281 0.746643
lowerneck -12.5494 -10.1532 -12.69
upperneck 27.3815 -13.9127 9.40165
head 12.8036 -6.31997 3.55014
rclavicle 1.52816e-014 1.19271e-014
rhumerus -30.5331 -0.979036 -86.3788
rradius 32.2529
rwrist 5.75188
rhand -15.6652 9.12046
rfingers 7.12502
rthumb 10.5231 -20.5961
lclavicle 1.52816e-014 1.19271e-014
lhumerus -36.6083 3.03009 78.1984
lradius 29.2264
lwrist -2.69257
lhand -21.8008 38.6036
lfingers 7.12502
lthumb 4.60116 68.5336
rfemur -17.0794 -5.02074 15.0336
rtibia 59.785
rfoot -13.0979 0.367877
rtoes 3.418
lfemur -4.49341 -3.50139 -21.9954
ltibia 12.7207
lfoot -5.83313 -17.94
ltoes -4.19391
4430
root 12.8168 17.9054 -9.31248 -1434.94 48.4527 369.481
lowerback 11.6552 2.61718 -4.19225
upperback 1.11987 2.90392 -1.03995
thorax -5.51254 1.52479 0.793323
lowerneck -12.6203 -10.0833 -12.6719
upperneck 27.377 -13.8409 9.48423
head 12.8119 -6.27716 3.58928
rclavicle -2.1593e-014 -1.19271e-015
rhumerus -30.7545 -0.893703 -86.2483
rradius 32.6218
rwrist 5.3182
rhand -15.5477 9.23287
rfingers 7.12502
rthumb 10.6365 -20.4779
lclavicle -2.1593e-014 -1.19271e-015
lhumerus -35.5514 6.07399 76.8776
lradius 27.7642
lwrist -5.87101
lhand -20.4213 41.6731
lfingers 7.12502
lthumb 5.93304 71.57
rfemur -17.7168 -5.26703 15.0981
rtibia 59.4589
rfoot -13.288 -0.794613
rtoes -0.632007
lfemur -4.24636 -3.27134 -22.0318
ltibia 12.9218
lfoot -6.1498 -16.9877
ltoes -4.15987
4431
root 12.8695 17.9097 -9.30803 -1435.35 47.5705 368.96
lowerback 11.7931 2.42193 -3.77774
upperback 0.999228 2.69097 -0.937964
thorax -5.69228 1.4137 0.69511
lowerneck -12.4981 -9.9193 -12.9156
upperneck 27.3924 -13.5943 9.58864
head 12.7889 -6.18792 3.71994
rclavicle 1.86361e-014 7.95139e-015
rhumerus -31.1029 -0.500005 -86.1275
rradius 33.0362
rwrist 4.9691
rhand -15.9161 9.1488
rfingers 7.12502
rthumb 10.2811 -20.5799
lclavicle 1.86361e-014 7.95139e-015
lhumerus -37.0345 3.12258 77.7945
lradius 29.9026
lwrist -1.61065
lhand -20.8191 34.2231
lfingers 7.12502
lthumb 5.54905 64.1305
rfemur -18.2914 -5.81718 15.2834
rtibia 59.0052
rfoot -13.5035 -1.55947
rtoes -1.55283
lfemur -4.09882 -3.20702 -21.9157
ltibia 13.2488
lfoot -6.42258 -16.047
ltoes -4.76156
4432
root 12.9171 17.9095 -9.29849 -1435.66 46.6919 368.627
lowerback 11.9366 2.25686 -3.59043
upperback 0.966026 2.49343 -0.833884
thorax -5.79542 1.31409 0.726664
lowerneck -12.4724 -9.76134 -12.9986
upperneck 27.3278 -13.3538 9.60724
head 12.7314 -6.09324 3.78453
rclavicle -7.49418e-014 1.86858e-014
rhumerus -31.2583 -0.341526 -85.9086
rradius 33.3359
rwrist 4.948
rhand -16.2837 8.92374
rfingers 7.12502
rthumb 9.92648 -20.8222
lclavicle -7.49418e-014 1.86858e-014
lhumerus -36.8094 7.1147 74.9957
lradius 28.2959
lwrist -9.9291
lhand -14.7721 24.3751
lfingers 7.12502
lthumb 11.3845 54.0461
rfemur -18.8134 -6.47078 15.3872
rtibia 58.5144
rfoot -13.8086 -2.30641
rtoes -1.9366
lfemur -4.02149 -3.23775 -21.9161
ltibia 13.7312
lfoot -6.74616 -15.021
ltoes -5.16903
4433
root 12.9632 17.9081 -9.28124 -1435.82 45.6719 368.433
lowerback 11.9745 2.2445 -3.58533
upperback 0.962828 2.47711 -0.798493
thorax -5.82069 1.30629 0.762268
lowerneck -12.4473 -9.71039 -12.9315
upperneck 27.1814 -13.3051 9.64152
head 12.6563 -6.06669 3.79395
rclavicle -1.799e-014 -4.37326e-015
rhumerus -31.3649 -0.44738 -85.6966
rradius 33.6199
rwrist 4.80322
rhand -16.596 8.73204
rfingers 7.12502
rthumb 9.62517 -21.0281
lclavicle -1.799e-014 -4.37326e-015
lhumerus -36.6604 6.38599 75.3405
lradius 28.7004
lwrist -8.79943
lhand -16.3139 26.6435
lfingers 7.12502
lthumb 9.89731 56.3908
rfemur -19.3925 -6.90172 15.4244
rtibia 57.994
rfoot -14.2124 -3.08104
rtoes -3.32731
lfemur -3.99375 -3.11497 -22.0158
ltibia 14.2423
lfoot -7.17449 -14.0007
ltoes -5.16139
4434
root 13.0094 17.9092 -9.26271 -1436.06 44.5697 368.116
lowerback 11.8804 2.23916 -3.63351
upperback 1.01011 2.47685 -0.651692
thorax -5.72687 1.30724 0.948112
lowerneck -12.4369 -9.66522 -12.933
upperneck 26.9894 -13.2284 9.62763
head 12.5641 -6.04085 3.79899
rclavicle -3.85642e-014 -2.78299e-015
rhumerus -31.403 -0.183592 -85.4803
rradius 33.9416
rwrist 4.31493
rhand -16.7329 8.49585
rfingers 7.12502
rthumb 9.49309 -21.2703
lclavicle -3.85642e-014 -2.78299e-015
lhumerus -36.6356 5.82392 75.6511
lradius 29.1487
lwrist -7.42438
lhand -17.8788 28.4694
lfingers 7.12502
lthumb 8.38726 58.2829
rfemur -19.9663 -7.20382 15.564
rtibia 57.3917
rfoot -14.4847 -3.74014
rtoes -3.64094
lfemur -3.93241 -3.02244 -22.041
ltibia 14.7327
lfoot -7.60883 -12.8806
ltoes -5.73229
